<svg width="838" height="548" viewBox="0 0 838 548" fill="none" xmlns="http://www.w3.org/2000/svg">
<g filter="url(#filter0_di)">
<path fill-rule="evenodd" clip-rule="evenodd" d="M67.04 66.8C67.04 40.953 87.9931 20 113.84 20H725.557C751.404 20 772.357 40.9531 772.357 66.8V440.863C772.357 466.71 751.404 487.663 725.557 487.663H113.84C87.9931 487.663 67.04 466.71 67.04 440.863V66.8Z" fill="black" fill-opacity="0.77"/>
</g>
<path fill-rule="evenodd" clip-rule="evenodd" d="M0 483.411H838V489.08H0V483.411Z" fill="#5F5656"/>
<path fill-rule="evenodd" clip-rule="evenodd" d="M344.977 483.411H494.42V483.411C494.42 485.759 492.517 487.663 490.169 487.663H349.228C346.88 487.663 344.977 485.759 344.977 483.411V483.411Z" fill="url(#paint0_linear)" fill-opacity="0.5"/>
<path fill-rule="evenodd" clip-rule="evenodd" d="M703.92 499C817.908 499 838 489.08 838 489.08L420.397 487.663L0 489.08C0 489.08 20.1457 499 134.08 499L420.397 499H703.92Z" fill="url(#paint1_linear)"/>
<defs>
<filter id="filter0_di" x="27.04" y="0" width="785.317" height="547.663" filterUnits="userSpaceOnUse" color-interpolation-filters="sRGB">
<feFlood flood-opacity="0" result="BackgroundImageFix"/>
<feColorMatrix in="SourceAlpha" type="matrix" values="0 0 0 0 0 0 0 0 0 0 0 0 0 0 0 0 0 0 127 0"/>
<feOffset dy="20"/>
<feGaussianBlur stdDeviation="20"/>
<feColorMatrix type="matrix" values="0 0 0 0 0 0 0 0 0 0 0 0 0 0 0 0 0 0 0.05 0"/>
<feBlend mode="normal" in2="BackgroundImageFix" result="effect1_dropShadow"/>
<feBlend mode="normal" in="SourceGraphic" in2="effect1_dropShadow" result="shape"/>
<feColorMatrix in="SourceAlpha" type="matrix" values="0 0 0 0 0 0 0 0 0 0 0 0 0 0 0 0 0 0 127 0" result="hardAlpha"/>
<feOffset dy="3"/>
<feGaussianBlur stdDeviation="1.5"/>
<feComposite in2="hardAlpha" operator="arithmetic" k2="-1" k3="1"/>
<feColorMatrix type="matrix" values="0 0 0 0 1 0 0 0 0 1 0 0 0 0 1 0 0 0 1 0"/>
<feBlend mode="normal" in2="shape" result="effect2_innerShadow"/>
</filter>
<linearGradient id="paint0_linear" x1="344.977" y1="487.663" x2="494.42" y2="487.663" gradientUnits="userSpaceOnUse">
<stop stop-color="#BCBDBF"/>
<stop offset="0.0975965" stop-color="#D8D8DF"/>
<stop offset="0.888214" stop-color="#D8D8DF"/>
<stop offset="1" stop-color="#ADAABD"/>
</linearGradient>
<linearGradient id="paint1_linear" x1="0" y1="487.663" x2="0" y2="499" gradientUnits="userSpaceOnUse">
<stop stop-color="white"/>
<stop offset="1" stop-color="#CDCBD5"/>
</linearGradient>
</defs>
</svg>
